<svg xmlns="http://www.w3.org/2000/svg" width="512" height="512" viewBox="0 0 512 512">
  <g id="coacher_logo" data-name="coacher logo" transform="translate(1928 307)">
    <rect id="Rectangle_2" data-name="Rectangle 2" width="512" height="512" transform="translate(-1928 -307)" fill="none"/>
    <g id="Group_1" data-name="Group 1" transform="translate(-2015.218 -463.073)">
      <path id="Path_1" data-name="Path 1" d="M166.2,342.566a20.715,20.715,0,0,1,7.678,7.828l0,0a5.82,5.82,0,0,0,3.664,2.9,6.593,6.593,0,0,0,1.738.245,5.961,5.961,0,0,0,2.963-.8,5.824,5.824,0,0,0,2.9-3.667,6.689,6.689,0,0,0,.245-1.735,6.031,6.031,0,0,0-.8-2.963,33.2,33.2,0,0,0-28.932-16.91,33.123,33.123,0,1,0,0,66.247,32.475,32.475,0,0,0,16.723-4.565,32.926,32.926,0,0,0,12.209-12.4,6,6,0,0,0,.8-2.942,6.491,6.491,0,0,0-.245-1.708,5.826,5.826,0,0,0-2.9-3.664l-.01-.007a5.753,5.753,0,0,0-2.922-.816,6.246,6.246,0,0,0-1.759.262l-.007,0a5.833,5.833,0,0,0-3.667,2.9l0,0a20.7,20.7,0,0,1-18.217,10.634,20.831,20.831,0,0,1,0-41.662A20.631,20.631,0,0,1,166.2,342.566Z" transform="translate(0 176.449)" fill="#030e2d"/>
      <path id="Path_2" data-name="Path 2" d="M181.35,368.4v0a14.222,14.222,0,0,1-10.345,4.249,14.6,14.6,0,0,1-10.3-24.942l0,0a13.982,13.982,0,0,1,10.3-4.3A14.63,14.63,0,0,1,181.35,368.4Zm8.709-29.4a26.913,26.913,0,1,0,7.885,19.057A25.915,25.915,0,0,0,190.059,339Z" transform="translate(51.831 185.216)" fill="#ed1c24"/>
      <path id="Path_3" data-name="Path 3" d="M200.136,368.4l0,0a14.211,14.211,0,0,1-10.345,4.249,14.6,14.6,0,0,1-10.3-24.942l0,0,0,0a13.991,13.991,0,0,1,10.3-4.3,14.63,14.63,0,0,1,10.348,24.99Zm-10.348-37.284a26.915,26.915,0,0,0,0,53.83,26.53,26.53,0,0,0,14.145-3.987l.687-.422.327.738a5.665,5.665,0,0,0,5.637,3.671,5.826,5.826,0,0,0,4.3-1.793l.007,0a5.819,5.819,0,0,0,1.834-4.351V358.054a26.911,26.911,0,0,0-26.939-26.939Z" transform="translate(96.942 185.216)" fill="#030e2d"/>
      <path id="Path_4" data-name="Path 4" d="M220.162,333.479c-.146-.061-.286-.123-.418-.187a26.576,26.576,0,0,0-10.614-2.177,26.915,26.915,0,0,0,0,53.83,26.843,26.843,0,0,0,19.516-8.392l0,0a5.712,5.712,0,0,0,1.663-4.106l0-.235V372.2a6.036,6.036,0,0,0-6.025-5.97l-.238,0h-.014a5.77,5.77,0,0,0-4.259,1.874,14.817,14.817,0,0,1-4.848,3.395l-.007,0a14.828,14.828,0,0,1-5.79,1.15,14.6,14.6,0,0,1-10.3-24.942l0,0,0,0a14.455,14.455,0,0,1,16.063-3.1,15.727,15.727,0,0,1,4.878,3.337l.007.007a5.944,5.944,0,0,0,4.269,1.922h.112a5.965,5.965,0,0,0,4.279-1.708,5.764,5.764,0,0,0,1.874-4.259v-.01l0-.245a5.788,5.788,0,0,0-1.663-4.15A26.933,26.933,0,0,0,220.162,333.479Z" transform="translate(143.4 185.216)" fill="#030e2d"/>
      <path id="Path_5" data-name="Path 5" d="M226.807,339.882a26.324,26.324,0,0,0-13.536,3.66l-1.061.622V333.609a6.147,6.147,0,1,0-12.294,0v53.956a6.147,6.147,0,1,0,12.294,0V366.821a14.143,14.143,0,0,1,4.3-10.345v0a13.977,13.977,0,0,1,10.3-4.3,14.669,14.669,0,0,1,14.645,14.645v20.744a6.121,6.121,0,0,0,6.147,6.147,5.834,5.834,0,0,0,4.307-1.793l.007,0a5.819,5.819,0,0,0,1.834-4.351V366.821a26.911,26.911,0,0,0-26.939-26.939Z" transform="translate(185.857 176.449)" fill="#030e2d"/>
      <path id="Path_6" data-name="Path 6" d="M232.361,352.475a15.528,15.528,0,0,1,5.28-7.317,14.012,14.012,0,0,1,8.368-2.463,12.377,12.377,0,0,1,7.732,2.477,16.541,16.541,0,0,1,5.106,7.3l.378.963H232ZM260,368.511c-.17-.014-.34-.017-.507-.017a6.446,6.446,0,0,0-4.188,1.48,15.185,15.185,0,0,1-18.591.33l0-.007a12.551,12.551,0,0,1-4.133-6.793l-.221-.874H266.8a7.672,7.672,0,0,0,4.708-1.174,3.99,3.99,0,0,0,1.439-3.4,26.917,26.917,0,1,0-26.939,26.891,26.978,26.978,0,0,0,9.09-1.578,26.616,26.616,0,0,0,8.066-4.589,6.259,6.259,0,0,0,2.371-3.939v0a5.793,5.793,0,0,0,.071-.891,5.052,5.052,0,0,0-1.3-3.351l.007.007-.014-.014a5.726,5.726,0,0,0-4.3-2.075l.044-.7Z" transform="translate(231.977 185.216)" fill="#030e2d"/>
      <path id="Path_7" data-name="Path 7" d="M279.417,338.187a24.063,24.063,0,0,0-41.1,17.012v23.6a6.147,6.147,0,1,0,12.294,0V355.2a11.767,11.767,0,1,1,23.534,0,5.834,5.834,0,0,0,1.793,4.307l.007.007a6.071,6.071,0,0,0,8.7,0l.007-.007a5.834,5.834,0,0,0,1.793-4.307A23.133,23.133,0,0,0,279.417,338.187Z" transform="translate(278.096 185.216)" fill="#030e2d"/>
      <path id="Path_8" data-name="Path 8" d="M176.9,298.449a10.432,10.432,0,0,0-5.232,16.291L238.8,403.018a10.434,10.434,0,0,0,18.241-3.123L271.9,353.644a10.436,10.436,0,1,0-19.873-6.382L243.3,374.449,197.32,313.992l91.709-28.29a10.434,10.434,0,1,0-6.15-19.941l-.4-1.3.4,1.3Z" transform="translate(112.885 25.128)" fill="#030e2d"/>
      <path id="Path_9" data-name="Path 9" d="M177.031,276.983A22.984,22.984,0,1,0,200.017,254,22.985,22.985,0,0,0,177.031,276.983Z" transform="translate(130.892 0)" fill="#030e2d"/>
      <path id="Path_10" data-name="Path 10" d="M194.641,290.519A15.618,15.618,0,1,0,210.259,274.9,15.618,15.618,0,0,0,194.641,290.519Z" transform="translate(173.187 50.2)" fill="#ed1c24"/>
    </g>
  </g>
</svg>
